<svg width="14" height="18" viewBox="0 0 14 18" fill="none" xmlns="http://www.w3.org/2000/svg">
<path d="M10.2061 8.96289C10.2061 9.12865 10.1402 9.28762 10.023 9.40483C9.90579 9.52204 9.74681 9.58789 9.58105 9.58789H4.58105C4.41529 9.58789 4.25632 9.52204 4.13911 9.40483C4.0219 9.28762 3.95605 9.12865 3.95605 8.96289C3.95605 8.79713 4.0219 8.63816 4.13911 8.52095C4.25632 8.40374 4.41529 8.33789 4.58105 8.33789H9.58105C9.74681 8.33789 9.90579 8.40374 10.023 8.52095C10.1402 8.63816 10.2061 8.79713 10.2061 8.96289ZM9.58105 10.8379H4.58105C4.41529 10.8379 4.25632 10.9037 4.13911 11.0209C4.0219 11.1382 3.95605 11.2971 3.95605 11.4629C3.95605 11.6287 4.0219 11.7876 4.13911 11.9048C4.25632 12.022 4.41529 12.0879 4.58105 12.0879H9.58105C9.74681 12.0879 9.90579 12.022 10.023 11.9048C10.1402 11.7876 10.2061 11.6287 10.2061 11.4629C10.2061 11.2971 10.1402 11.1382 10.023 11.0209C9.90579 10.9037 9.74681 10.8379 9.58105 10.8379ZM13.9561 2.08789V14.5879C13.9561 15.2509 13.6927 15.8868 13.2238 16.3557C12.755 16.8245 12.1191 17.0879 11.4561 17.0879H2.70605C2.04301 17.0879 1.40713 16.8245 0.938288 16.3557C0.469447 15.8868 0.206055 15.2509 0.206055 14.5879V2.08789C0.206055 1.92213 0.271903 1.76316 0.389113 1.64595C0.506323 1.52874 0.665294 1.46289 0.831055 1.46289H2.70605V0.837891C2.70605 0.67213 2.7719 0.513159 2.88911 0.395949C3.00632 0.278739 3.16529 0.212891 3.33105 0.212891C3.49681 0.212891 3.65579 0.278739 3.773 0.395949C3.89021 0.513159 3.95605 0.67213 3.95605 0.837891V1.46289H6.45605V0.837891C6.45605 0.67213 6.5219 0.513159 6.63911 0.395949C6.75632 0.278739 6.91529 0.212891 7.08105 0.212891C7.24682 0.212891 7.40579 0.278739 7.523 0.395949C7.64021 0.513159 7.70605 0.67213 7.70605 0.837891V1.46289H10.2061V0.837891C10.2061 0.67213 10.2719 0.513159 10.3891 0.395949C10.5063 0.278739 10.6653 0.212891 10.8311 0.212891C10.9968 0.212891 11.1558 0.278739 11.273 0.395949C11.3902 0.513159 11.4561 0.67213 11.4561 0.837891V1.46289H13.3311C13.4968 1.46289 13.6558 1.52874 13.773 1.64595C13.8902 1.76316 13.9561 1.92213 13.9561 2.08789ZM12.7061 2.71289H11.4561V3.33789C11.4561 3.50365 11.3902 3.66262 11.273 3.77983C11.1558 3.89704 10.9968 3.96289 10.8311 3.96289C10.6653 3.96289 10.5063 3.89704 10.3891 3.77983C10.2719 3.66262 10.2061 3.50365 10.2061 3.33789V2.71289H7.70605V3.33789C7.70605 3.50365 7.64021 3.66262 7.523 3.77983C7.40579 3.89704 7.24682 3.96289 7.08105 3.96289C6.91529 3.96289 6.75632 3.89704 6.63911 3.77983C6.5219 3.66262 6.45605 3.50365 6.45605 3.33789V2.71289H3.95605V3.33789C3.95605 3.50365 3.89021 3.66262 3.773 3.77983C3.65579 3.89704 3.49681 3.96289 3.33105 3.96289C3.16529 3.96289 3.00632 3.89704 2.88911 3.77983C2.7719 3.66262 2.70605 3.50365 2.70605 3.33789V2.71289H1.45605V14.5879C1.45605 14.9194 1.58775 15.2374 1.82217 15.4718C2.05659 15.7062 2.37453 15.8379 2.70605 15.8379H11.4561C11.7876 15.8379 12.1055 15.7062 12.3399 15.4718C12.5744 15.2374 12.7061 14.9194 12.7061 14.5879V2.71289Z" fill="black" fill-opacity="0.7"/>
</svg>
