<svg width="21" height="21" viewBox="0 0 21 21" fill="none" xmlns="http://www.w3.org/2000/svg">
<path d="M14.4131 4.00537C12.7998 4.00537 11.3873 4.69912 10.5068 5.87178C9.62637 4.69912 8.21387 4.00537 6.60059 4.00537C5.31639 4.00682 4.0852 4.51761 3.17714 5.42567C2.26907 6.33374 1.75828 7.56492 1.75684 8.84912C1.75684 14.3179 9.86543 18.7444 10.2107 18.9272C10.3018 18.9762 10.4035 19.0018 10.5068 19.0018C10.6102 19.0018 10.7119 18.9762 10.8029 18.9272C11.1482 18.7444 19.2568 14.3179 19.2568 8.84912C19.2554 7.56492 18.7446 6.33374 17.8365 5.42567C16.9285 4.51761 15.6973 4.00682 14.4131 4.00537ZM10.5068 17.6616C9.08027 16.8304 3.00684 13.0437 3.00684 8.84912C3.00808 7.89638 3.3871 6.98302 4.06079 6.30933C4.73448 5.63564 5.64785 5.25661 6.60059 5.25537C8.12012 5.25537 9.3959 6.06475 9.92871 7.36475C9.9758 7.47938 10.0559 7.57742 10.1588 7.64642C10.2618 7.71543 10.3829 7.75227 10.5068 7.75227C10.6308 7.75227 10.7519 7.71543 10.8548 7.64642C10.9578 7.57742 11.0379 7.47938 11.085 7.36475C11.6178 6.0624 12.8936 5.25537 14.4131 5.25537C15.3658 5.25661 16.2792 5.63564 16.9529 6.30933C17.6266 6.98302 18.0056 7.89638 18.0068 8.84912C18.0068 13.0374 11.9318 16.8296 10.5068 17.6616Z" fill="black" fill-opacity="0.7"/>
</svg>
