<svg width="21" height="21" viewBox="0 0 21 21" fill="none" xmlns="http://www.w3.org/2000/svg">
<path d="M16.9761 3.39062H3.22607C2.89455 3.39063 2.57661 3.52232 2.34219 3.75674C2.10777 3.99116 1.97607 4.3091 1.97607 4.64062V15.8906C1.97607 16.2221 2.10777 16.5401 2.34219 16.7745C2.57661 17.0089 2.89455 17.1406 3.22607 17.1406H16.9761C17.3076 17.1406 17.6255 17.0089 17.86 16.7745C18.0944 16.5401 18.2261 16.2221 18.2261 15.8906V4.64062C18.2261 4.3091 18.0944 3.99116 17.86 3.75674C17.6255 3.52232 17.3076 3.39063 16.9761 3.39062ZM16.9761 15.8906H3.22607V4.64062H16.9761V15.8906ZM13.8511 7.14062C13.8511 8.13519 13.456 9.08901 12.7527 9.79228C12.0495 10.4955 11.0956 10.8906 10.1011 10.8906C9.10651 10.8906 8.15269 10.4955 7.44942 9.79228C6.74616 9.08901 6.35107 8.13519 6.35107 7.14062C6.35107 6.97486 6.41692 6.81589 6.53413 6.69868C6.65134 6.58147 6.81031 6.51562 6.97607 6.51562C7.14183 6.51562 7.30081 6.58147 7.41802 6.69868C7.53523 6.81589 7.60107 6.97486 7.60107 7.14062C7.60107 7.80367 7.86447 8.43955 8.33331 8.90839C8.80215 9.37723 9.43803 9.64062 10.1011 9.64062C10.7641 9.64062 11.4 9.37723 11.8688 8.90839C12.3377 8.43955 12.6011 7.80367 12.6011 7.14062C12.6011 6.97486 12.6669 6.81589 12.7841 6.69868C12.9013 6.58147 13.0603 6.51562 13.2261 6.51562C13.3918 6.51562 13.5508 6.58147 13.668 6.69868C13.7852 6.81589 13.8511 6.97486 13.8511 7.14062Z" fill="black" fill-opacity="0.7"/>
</svg>
