<svg width="18" height="15" viewBox="0 0 18 15" fill="none" xmlns="http://www.w3.org/2000/svg">
<path d="M16.416 13.5099H15.791V1.00989C15.791 0.844127 15.7252 0.685156 15.608 0.567946C15.4907 0.450736 15.3318 0.384888 15.166 0.384888H10.791C10.6253 0.384888 10.4663 0.450736 10.3491 0.567946C10.2319 0.685156 10.166 0.844127 10.166 1.00989V4.13489H6.41602C6.25026 4.13489 6.09128 4.20074 5.97407 4.31795C5.85686 4.43516 5.79102 4.59413 5.79102 4.75989V7.88489H2.66602C2.50026 7.88489 2.34128 7.95074 2.22407 8.06795C2.10686 8.18516 2.04102 8.34413 2.04102 8.50989V13.5099H1.41602C1.25026 13.5099 1.09128 13.5757 0.974074 13.6929C0.856864 13.8102 0.791016 13.9691 0.791016 14.1349C0.791016 14.3006 0.856864 14.4596 0.974074 14.5768C1.09128 14.694 1.25026 14.7599 1.41602 14.7599H16.416C16.5818 14.7599 16.7407 14.694 16.858 14.5768C16.9752 14.4596 17.041 14.3006 17.041 14.1349C17.041 13.9691 16.9752 13.8102 16.858 13.6929C16.7407 13.5757 16.5818 13.5099 16.416 13.5099ZM11.416 1.63489H14.541V13.5099H11.416V1.63489ZM7.04102 5.38489H10.166V13.5099H7.04102V5.38489ZM3.29102 9.13489H5.79102V13.5099H3.29102V9.13489Z" fill="black" fill-opacity="0.7"/>
</svg>
