<svg width="21" height="21" viewBox="0 0 21 21" fill="none" xmlns="http://www.w3.org/2000/svg">
<path d="M18.6372 15.471C19.0691 14.5753 19.281 13.5894 19.2553 12.5954C19.2296 11.6013 18.9672 10.6277 18.4897 9.7555C18.0122 8.88325 17.3335 8.13753 16.5099 7.58028C15.6863 7.02302 14.7417 6.67032 13.7544 6.55147C13.4259 5.78769 12.9483 5.09713 12.3496 4.52023C11.7509 3.94333 11.0431 3.49169 10.2676 3.19175C9.49221 2.89181 8.66472 2.7496 7.83363 2.77345C7.00255 2.7973 6.18458 2.98673 5.42762 3.33064C4.67066 3.67456 3.98993 4.16605 3.42528 4.77633C2.86064 5.38662 2.42344 6.10343 2.13928 6.88478C1.85512 7.66614 1.72971 8.49635 1.77041 9.32677C1.8111 10.1572 2.01707 10.9712 2.37627 11.721L1.8083 13.6515C1.74479 13.867 1.74055 14.0956 1.796 14.3133C1.85146 14.5311 1.96457 14.7298 2.12344 14.8887C2.28231 15.0475 2.48105 15.1606 2.69877 15.2161C2.91649 15.2716 3.14513 15.2673 3.36064 15.2038L5.29111 14.6358C5.91098 14.9337 6.57555 15.1276 7.2583 15.2101C7.59 15.9873 8.07586 16.6891 8.6865 17.2732C9.29715 17.8573 10.0199 18.3115 10.8111 18.6083C11.6022 18.9052 12.4454 19.0385 13.2895 19.0003C14.1337 18.962 14.9613 18.753 15.7224 18.3858L17.6528 18.9538C17.8683 19.0172 18.0968 19.0215 18.3144 18.966C18.532 18.9106 18.7307 18.7976 18.8896 18.6388C19.0484 18.4801 19.1615 18.2814 19.2171 18.0638C19.2726 17.8462 19.2685 17.6177 19.2052 17.4022L18.6372 15.471ZM5.35048 13.3413C5.29076 13.3415 5.23134 13.3499 5.17392 13.3663L3.00673 14.0054L3.64502 11.8366C3.69041 11.6799 3.67275 11.5117 3.5958 11.3679C3.03041 10.3105 2.86382 9.08519 3.12639 7.91527C3.38896 6.74534 4.06321 5.70873 5.02622 4.99439C5.98923 4.28006 7.17688 3.93557 8.37266 4.02373C9.56844 4.11189 10.6927 4.62682 11.5406 5.47466C12.3884 6.3225 12.9033 7.44679 12.9915 8.64257C13.0797 9.83835 12.7352 11.026 12.0208 11.989C11.3065 12.952 10.2699 13.6263 9.09997 13.8888C7.93004 14.1514 6.70472 13.9848 5.64736 13.4194C5.55643 13.3691 5.4544 13.3423 5.35048 13.3413ZM17.3653 15.5858L18.0067 17.7554L15.838 17.1171C15.6813 17.0717 15.5131 17.0894 15.3692 17.1663C14.2183 17.7809 12.8729 17.9216 11.6197 17.5585C10.3665 17.1954 9.30474 16.3572 8.66064 15.2226C9.5164 15.1332 10.3445 14.868 11.0929 14.4436C11.8413 14.0191 12.494 13.4446 13.0099 12.756C13.5258 12.0674 13.8938 11.2797 14.0909 10.4421C14.288 9.60458 14.3099 8.73536 14.1552 7.88897C14.9008 8.06472 15.5961 8.40945 16.1873 8.89655C16.7785 9.38364 17.25 10.0001 17.5652 10.6983C17.8804 11.3965 18.0309 12.1578 18.0052 12.9234C17.9795 13.689 17.7782 14.4385 17.4169 15.114C17.3391 15.2587 17.3214 15.4282 17.3677 15.5858H17.3653Z" fill="black" fill-opacity="0.7"/>
</svg>
