<svg width="21" height="21" viewBox="0 0 21 21" fill="none" xmlns="http://www.w3.org/2000/svg">
<path d="M18.0979 8.17698C17.8034 7.86916 17.4987 7.55198 17.3839 7.27307C17.2776 7.0176 17.2714 6.59416 17.2651 6.18401C17.2534 5.42151 17.2409 4.55745 16.6401 3.95667C16.0394 3.35588 15.1753 3.34338 14.4128 3.33167C14.0026 3.32542 13.5792 3.31916 13.3237 3.21291C13.0456 3.09807 12.7276 2.79338 12.4198 2.49885C11.8808 1.98088 11.2683 1.39417 10.4526 1.39417C9.63701 1.39417 9.02529 1.98088 8.48545 2.49885C8.17764 2.79338 7.86045 3.09807 7.58154 3.21291C7.32764 3.31916 6.90264 3.32542 6.49248 3.33167C5.72998 3.34338 4.86592 3.35588 4.26514 3.95667C3.66436 4.55745 3.65576 5.42151 3.64014 6.18401C3.63389 6.59416 3.62764 7.0176 3.52139 7.27307C3.40654 7.5512 3.10186 7.86916 2.80732 8.17698C2.28936 8.71604 1.70264 9.32854 1.70264 10.1442C1.70264 10.9598 2.28936 11.5715 2.80732 12.1114C3.10186 12.4192 3.40654 12.7364 3.52139 13.0153C3.62764 13.2707 3.63389 13.6942 3.64014 14.1043C3.65186 14.8668 3.66436 15.7309 4.26514 16.3317C4.86592 16.9324 5.72998 16.9449 6.49248 16.9567C6.90264 16.9629 7.32607 16.9692 7.58154 17.0754C7.85967 17.1903 8.17764 17.4949 8.48545 17.7895C9.02451 18.3074 9.63701 18.8942 10.4526 18.8942C11.2683 18.8942 11.88 18.3074 12.4198 17.7895C12.7276 17.4949 13.0448 17.1903 13.3237 17.0754C13.5792 16.9692 14.0026 16.9629 14.4128 16.9567C15.1753 16.9449 16.0394 16.9324 16.6401 16.3317C17.2409 15.7309 17.2534 14.8668 17.2651 14.1043C17.2714 13.6942 17.2776 13.2707 17.3839 13.0153C17.4987 12.7371 17.8034 12.4192 18.0979 12.1114C18.6159 11.5723 19.2026 10.9598 19.2026 10.1442C19.2026 9.32854 18.6159 8.71682 18.0979 8.17698ZM17.1956 11.2465C16.8214 11.6371 16.4339 12.041 16.2284 12.5371C16.0315 13.0137 16.0229 13.5582 16.0151 14.0856C16.0073 14.6324 15.9987 15.2051 15.7558 15.4473C15.5128 15.6895 14.944 15.6989 14.394 15.7067C13.8667 15.7145 13.3222 15.7231 12.8456 15.9199C12.3495 16.1254 11.9456 16.5129 11.555 16.8871C11.1644 17.2614 10.7651 17.6442 10.4526 17.6442C10.1401 17.6442 9.73779 17.2598 9.35029 16.8871C8.96279 16.5145 8.55576 16.1254 8.05967 15.9199C7.58311 15.7231 7.03857 15.7145 6.51123 15.7067C5.96436 15.6989 5.3917 15.6903 5.14951 15.4473C4.90732 15.2043 4.89795 14.6356 4.89014 14.0856C4.88232 13.5582 4.87373 13.0137 4.67686 12.5371C4.47139 12.041 4.08389 11.6371 3.70967 11.2465C3.33545 10.8559 2.95264 10.4567 2.95264 10.1442C2.95264 9.83167 3.33701 9.42932 3.70967 9.04182C4.08232 8.65432 4.47139 8.24729 4.67686 7.7512C4.87373 7.27463 4.88232 6.7301 4.89014 6.20276C4.89795 5.65588 4.90654 5.08323 5.14951 4.84104C5.39248 4.59885 5.96123 4.58948 6.51123 4.58167C7.03857 4.57385 7.58311 4.56526 8.05967 4.36838C8.55576 4.16291 8.95967 3.77541 9.35029 3.4012C9.74092 3.02698 10.1401 2.64417 10.4526 2.64417C10.7651 2.64417 11.1675 3.02854 11.555 3.4012C11.9425 3.77385 12.3495 4.16291 12.8456 4.36838C13.3222 4.56526 13.8667 4.57385 14.394 4.58167C14.9409 4.58948 15.5136 4.59807 15.7558 4.84104C15.9979 5.08401 16.0073 5.65276 16.0151 6.20276C16.0229 6.7301 16.0315 7.27463 16.2284 7.7512C16.4339 8.24729 16.8214 8.6512 17.1956 9.04182C17.5698 9.43245 17.9526 9.83167 17.9526 10.1442C17.9526 10.4567 17.5683 10.859 17.1956 11.2465ZM14.0198 7.82698C14.0779 7.88502 14.124 7.95395 14.1555 8.02983C14.1869 8.1057 14.2031 8.18703 14.2031 8.26917C14.2031 8.3513 14.1869 8.43263 14.1555 8.5085C14.124 8.58438 14.0779 8.65331 14.0198 8.71135L9.64482 13.0864C9.58678 13.1445 9.51785 13.1906 9.44197 13.222C9.3661 13.2535 9.28477 13.2697 9.20264 13.2697C9.1205 13.2697 9.03917 13.2535 8.9633 13.222C8.88743 13.1906 8.81849 13.1445 8.76045 13.0864L6.88545 11.2114C6.76817 11.0941 6.70229 10.935 6.70229 10.7692C6.70229 10.6033 6.76817 10.4443 6.88545 10.327C7.00272 10.2097 7.16178 10.1438 7.32764 10.1438C7.49349 10.1438 7.65255 10.2097 7.76982 10.327L9.20264 11.7606L13.1354 7.82698C13.1935 7.76887 13.2624 7.72277 13.3383 7.69132C13.4142 7.65986 13.4955 7.64367 13.5776 7.64367C13.6598 7.64367 13.7411 7.65986 13.817 7.69132C13.8928 7.72277 13.9618 7.76887 14.0198 7.82698Z" fill="black" fill-opacity="0.7"/>
</svg>
