<svg width="10" height="10" viewBox="0 0 10 10" fill="none" xmlns="http://www.w3.org/2000/svg">
<g clip-path="url(#clip0_11_1550)">
<path d="M9.6875 4.6875H9.375V3.4375C9.375 3.27174 9.30915 3.11277 9.19194 2.99556C9.07473 2.87835 8.91576 2.8125 8.75 2.8125H8.125V2.5C8.125 2.33424 8.05915 2.17527 7.94194 2.05806C7.82473 1.94085 7.66576 1.875 7.5 1.875H6.5625C6.39674 1.875 6.23777 1.94085 6.12056 2.05806C6.00335 2.17527 5.9375 2.33424 5.9375 2.5V4.6875H4.0625V2.5C4.0625 2.33424 3.99665 2.17527 3.87944 2.05806C3.76223 1.94085 3.60326 1.875 3.4375 1.875H2.5C2.33424 1.875 2.17527 1.94085 2.05806 2.05806C1.94085 2.17527 1.875 2.33424 1.875 2.5V2.8125H1.25C1.08424 2.8125 0.925268 2.87835 0.808058 2.99556C0.690848 3.11277 0.625 3.27174 0.625 3.4375V4.6875H0.3125C0.22962 4.6875 0.150134 4.72042 0.0915291 4.77903C0.032924 4.83763 0 4.91712 0 5C0 5.08288 0.032924 5.16237 0.0915291 5.22097C0.150134 5.27958 0.22962 5.3125 0.3125 5.3125H0.625V6.5625C0.625 6.72826 0.690848 6.88723 0.808058 7.00444C0.925268 7.12165 1.08424 7.1875 1.25 7.1875H1.875V7.5C1.875 7.66576 1.94085 7.82473 2.05806 7.94194C2.17527 8.05915 2.33424 8.125 2.5 8.125H3.4375C3.60326 8.125 3.76223 8.05915 3.87944 7.94194C3.99665 7.82473 4.0625 7.66576 4.0625 7.5V5.3125H5.9375V7.5C5.9375 7.66576 6.00335 7.82473 6.12056 7.94194C6.23777 8.05915 6.39674 8.125 6.5625 8.125H7.5C7.66576 8.125 7.82473 8.05915 7.94194 7.94194C8.05915 7.82473 8.125 7.66576 8.125 7.5V7.1875H8.75C8.91576 7.1875 9.07473 7.12165 9.19194 7.00444C9.30915 6.88723 9.375 6.72826 9.375 6.5625V5.3125H9.6875C9.77038 5.3125 9.84987 5.27958 9.90847 5.22097C9.96708 5.16237 10 5.08288 10 5C10 4.91712 9.96708 4.83763 9.90847 4.77903C9.84987 4.72042 9.77038 4.6875 9.6875 4.6875ZM1.25 6.5625V3.4375H1.875V6.5625H1.25ZM3.4375 7.5H2.5V2.5H3.4375V7.5ZM7.5 7.5H6.5625V2.5H7.5V6.86797C7.5 6.87031 7.5 6.87266 7.5 6.875C7.5 6.87734 7.5 6.87969 7.5 6.88203V7.5ZM8.75 6.5625H8.125V3.4375H8.75V6.5625Z" fill="#800080"/>
</g>
<defs>
<clipPath id="clip0_11_1550">
<rect width="10" height="10" fill="white"/>
</clipPath>
</defs>
</svg>
