<svg width="10" height="10" viewBox="0 0 10 10" fill="none" xmlns="http://www.w3.org/2000/svg">
<g clip-path="url(#clip0_11_1535)">
<path d="M9.06543 7.29531C9.28136 6.84745 9.38731 6.35454 9.37448 5.85751C9.36165 5.36048 9.23041 4.87369 8.99166 4.43756C8.75292 4.00144 8.41355 3.62858 8.00177 3.34995C7.58998 3.07132 7.11765 2.89497 6.62402 2.83555C6.45977 2.45366 6.22098 2.10838 5.92162 1.81993C5.62227 1.53148 5.26837 1.30566 4.88065 1.15569C4.49293 1.00572 4.07918 0.934613 3.66364 0.946537C3.2481 0.958462 2.83912 1.05318 2.46064 1.22514C2.08216 1.39709 1.74179 1.64284 1.45947 1.94798C1.17715 2.25312 0.958545 2.61153 0.816465 3.00221C0.674385 3.39289 0.611683 3.80799 0.632029 4.2232C0.652376 4.63842 0.755363 5.0454 0.934959 5.42031L0.650974 6.38555C0.619222 6.4933 0.617099 6.60762 0.644828 6.71648C0.672557 6.82534 0.729114 6.92471 0.808547 7.00415C0.88798 7.08358 0.987353 7.14014 1.09621 7.16786C1.20507 7.19559 1.31939 7.19347 1.42715 7.16172L2.39238 6.87774C2.70232 7.02664 3.0346 7.12364 3.37597 7.16484C3.54183 7.55344 3.78475 7.90437 4.09008 8.19641C4.3954 8.48846 4.75677 8.71556 5.15235 8.86399C5.54793 9.01241 5.9695 9.07908 6.39158 9.05996C6.81365 9.04083 7.22747 8.93632 7.60801 8.75274L8.57324 9.03672C8.68095 9.06843 8.79522 9.07055 8.90404 9.04283C9.01285 9.01512 9.11218 8.9586 9.1916 8.87922C9.27102 8.79984 9.32759 8.70053 9.35536 8.59174C9.38313 8.48294 9.38107 8.36867 9.34941 8.26094L9.06543 7.29531ZM2.42207 6.23047C2.3922 6.23054 2.3625 6.23475 2.33379 6.24297L1.25019 6.5625L1.56933 5.47813C1.59203 5.39978 1.5832 5.31567 1.54472 5.24375C1.26203 4.71507 1.17874 4.10241 1.31002 3.51745C1.44131 2.93249 1.77843 2.41418 2.25994 2.05701C2.74144 1.69984 3.33527 1.5276 3.93316 1.57168C4.53105 1.61576 5.09319 1.87323 5.51711 2.29715C5.94103 2.72107 6.1985 3.28321 6.24258 3.8811C6.28666 4.47899 6.11441 5.07281 5.75725 5.55432C5.40008 6.03582 4.88177 6.37295 4.29681 6.50423C3.71185 6.63552 3.09919 6.55222 2.57051 6.26953C2.52504 6.24437 2.47403 6.23095 2.42207 6.23047ZM8.42949 7.35273L8.75019 8.4375L7.66582 8.11836C7.58748 8.09566 7.50336 8.10449 7.43144 8.14297C6.85599 8.45025 6.18327 8.52061 5.55668 8.33906C4.9301 8.15751 4.3992 7.73841 4.07715 7.17109C4.50503 7.12644 4.91906 6.99383 5.29328 6.78161C5.6675 6.56938 5.99382 6.28211 6.25177 5.93782C6.50972 5.59353 6.69374 5.19964 6.79229 4.78087C6.89083 4.36211 6.90177 3.92749 6.82441 3.5043C7.19722 3.59217 7.54485 3.76454 7.84047 4.00809C8.1361 4.25164 8.37181 4.55985 8.52941 4.90895C8.68701 5.25805 8.76229 5.6387 8.74943 6.02151C8.73658 6.40432 8.63593 6.77906 8.45527 7.1168C8.41638 7.18915 8.40754 7.27391 8.43066 7.35273H8.42949Z" fill="#FF0000"/>
</g>
<defs>
<clipPath id="clip0_11_1535">
<rect width="10" height="10" fill="white"/>
</clipPath>
</defs>
</svg>
