<svg width="11" height="11" viewBox="0 0 11 11" fill="none" xmlns="http://www.w3.org/2000/svg">
<path d="M7.45996 2.44287C6.65332 2.44287 5.94707 2.78975 5.50684 3.37607C5.0666 2.78975 4.36035 2.44287 3.55371 2.44287C2.91161 2.44359 2.29602 2.69899 1.84199 3.15302C1.38795 3.60705 1.13256 4.22265 1.13184 4.86475C1.13184 7.59912 5.18613 9.8124 5.35879 9.90381C5.4043 9.92829 5.45516 9.9411 5.50684 9.9411C5.55851 9.9411 5.60938 9.92829 5.65488 9.90381C5.82754 9.8124 9.88184 7.59912 9.88184 4.86475C9.88111 4.22265 9.62572 3.60705 9.17169 3.15302C8.71765 2.69899 8.10206 2.44359 7.45996 2.44287ZM5.50684 9.271C4.79355 8.85537 1.75684 6.96201 1.75684 4.86475C1.75746 4.38838 1.94697 3.93169 2.28381 3.59485C2.62066 3.258 3.07734 3.06849 3.55371 3.06787C4.31348 3.06787 4.95137 3.47256 5.21777 4.12256C5.24132 4.17987 5.28137 4.2289 5.33284 4.2634C5.38431 4.2979 5.44487 4.31632 5.50684 4.31632C5.5688 4.31632 5.62936 4.2979 5.68083 4.2634C5.7323 4.2289 5.77235 4.17987 5.7959 4.12256C6.0623 3.47139 6.7002 3.06787 7.45996 3.06787C7.93633 3.06849 8.39301 3.258 8.72986 3.59485C9.0667 3.93169 9.25622 4.38838 9.25684 4.86475C9.25684 6.95889 6.21934 8.85498 5.50684 9.271Z" fill="#0000FF"/>
</svg>
