<svg width="11" height="11" viewBox="0 0 11 11" fill="none" xmlns="http://www.w3.org/2000/svg">
<path d="M8.53857 1.82812H1.66357C1.49781 1.82813 1.33884 1.89397 1.22163 2.01118C1.10442 2.12839 1.03857 2.28736 1.03857 2.45312V8.07812C1.03857 8.24389 1.10442 8.40286 1.22163 8.52007C1.33884 8.63728 1.49781 8.70312 1.66357 8.70312H8.53857C8.70433 8.70312 8.86331 8.63728 8.98052 8.52007C9.09773 8.40286 9.16357 8.24389 9.16357 8.07812V2.45312C9.16357 2.28736 9.09773 2.12839 8.98052 2.01118C8.86331 1.89397 8.70433 1.82813 8.53857 1.82812ZM8.53857 8.07812H1.66357V2.45312H8.53857V8.07812ZM6.97607 3.70312C6.97607 4.20041 6.77853 4.67732 6.4269 5.02895C6.07527 5.38058 5.59836 5.57812 5.10107 5.57812C4.60379 5.57812 4.12688 5.38058 3.77525 5.02895C3.42362 4.67732 3.22607 4.20041 3.22607 3.70312C3.22607 3.62024 3.259 3.54076 3.3176 3.48215C3.37621 3.42355 3.45569 3.39062 3.53857 3.39062C3.62145 3.39062 3.70094 3.42355 3.75955 3.48215C3.81815 3.54076 3.85107 3.62024 3.85107 3.70312C3.85107 4.03465 3.98277 4.35259 4.21719 4.58701C4.45161 4.82143 4.76955 4.95312 5.10107 4.95312C5.43259 4.95312 5.75054 4.82143 5.98496 4.58701C6.21938 4.35259 6.35107 4.03465 6.35107 3.70312C6.35107 3.62024 6.384 3.54076 6.4426 3.48215C6.50121 3.42355 6.58069 3.39062 6.66357 3.39062C6.74645 3.39062 6.82594 3.42355 6.88455 3.48215C6.94315 3.54076 6.97607 3.62024 6.97607 3.70312Z" fill="#008000"/>
</svg>
