<svg width="20" height="20" viewBox="0 0 20 20" fill="none" xmlns="http://www.w3.org/2000/svg">
<path d="M9.16026 12.3375C9.99791 11.7798 10.6339 10.9674 10.9741 10.0203C11.3143 9.07329 11.3407 8.04189 11.0494 7.07867C10.7581 6.11544 10.1646 5.27153 9.35653 4.67174C8.54851 4.07194 7.56891 3.74809 6.5626 3.74809C5.55629 3.74809 4.57669 4.07194 3.76867 4.67174C2.96065 5.27153 2.3671 6.11544 2.0758 7.07867C1.78449 8.04189 1.8109 9.07329 2.15111 10.0203C2.49133 10.9674 3.12729 11.7798 3.96494 12.3375C2.4497 12.896 1.15565 13.9294 0.275881 15.2836C0.229643 15.3523 0.197527 15.4295 0.181398 15.5108C0.165269 15.592 0.165449 15.6757 0.181929 15.7568C0.198409 15.838 0.230858 15.9151 0.277392 15.9836C0.323926 16.0521 0.383616 16.1107 0.452992 16.156C0.522368 16.2012 0.600047 16.2322 0.681512 16.2472C0.762978 16.2622 0.846606 16.2608 0.927534 16.2431C1.00846 16.2255 1.08508 16.192 1.15293 16.1444C1.22078 16.0969 1.2785 16.0364 1.32276 15.9664C1.89025 15.0936 2.66678 14.3763 3.58185 13.8798C4.49691 13.3833 5.52151 13.1232 6.5626 13.1232C7.60369 13.1232 8.62829 13.3833 9.54335 13.8798C10.4584 14.3763 11.235 15.0936 11.8024 15.9664C11.8941 16.1026 12.0357 16.1973 12.1966 16.23C12.3576 16.2627 12.5249 16.2307 12.6624 16.141C12.8 16.0513 12.8967 15.911 12.9317 15.7506C12.9666 15.5902 12.9371 15.4224 12.8493 15.2836C11.9695 13.9294 10.6755 12.896 9.16026 12.3375ZM3.1251 8.43749C3.1251 7.75762 3.32671 7.09302 3.70442 6.52772C4.08214 5.96243 4.619 5.52184 5.24713 5.26166C5.87525 5.00148 6.56641 4.93341 7.23322 5.06605C7.90003 5.19868 8.51254 5.52607 8.99328 6.00681C9.47402 6.48756 9.80141 7.10006 9.93405 7.76687C10.0667 8.43368 9.99861 9.12485 9.73844 9.75297C9.47826 10.3811 9.03767 10.918 8.47237 11.2957C7.90708 11.6734 7.24247 11.875 6.5626 11.875C5.65124 11.874 4.77749 11.5115 4.13306 10.867C3.48863 10.2226 3.12613 9.34886 3.1251 8.43749ZM19.5423 16.1484C19.4035 16.239 19.2344 16.2706 19.0722 16.2365C18.91 16.2024 18.768 16.1052 18.6774 15.9664C18.1106 15.0931 17.3342 14.3755 16.4189 13.8792C15.5037 13.3829 14.4788 13.1236 13.4376 13.125C13.2718 13.125 13.1129 13.0591 12.9957 12.9419C12.8784 12.8247 12.8126 12.6658 12.8126 12.5C12.8126 12.3342 12.8784 12.1753 12.9957 12.0581C13.1129 11.9408 13.2718 11.875 13.4376 11.875C13.9438 11.8745 14.4437 11.7622 14.9015 11.5462C15.3593 11.3301 15.7637 11.0156 16.0859 10.6251C16.4081 10.2346 16.64 9.77783 16.7652 9.28732C16.8903 8.79681 16.9056 8.28471 16.8099 7.78761C16.7142 7.29051 16.5098 6.82069 16.2115 6.41171C15.9132 6.00273 15.5282 5.66469 15.0841 5.42174C14.64 5.17879 14.1477 5.03693 13.6424 5.0063C13.1371 4.97566 12.6313 5.05701 12.161 5.24453C12.0844 5.27767 12.0018 5.29511 11.9183 5.29581C11.8348 5.29652 11.752 5.28048 11.6748 5.24864C11.5975 5.21679 11.5275 5.1698 11.4688 5.11042C11.41 5.05105 11.3638 4.98051 11.3327 4.90296C11.3017 4.82541 11.2866 4.74242 11.2881 4.65892C11.2897 4.57541 11.3081 4.49306 11.342 4.41675C11.376 4.34044 11.4249 4.27171 11.4858 4.21462C11.5468 4.15753 11.6186 4.11324 11.697 4.08437C12.7731 3.65519 13.9701 3.63975 15.0569 4.04102C16.1438 4.44228 17.0435 5.23184 17.5826 6.25735C18.1217 7.28287 18.2619 8.47168 17.9761 9.59446C17.6904 10.7172 16.999 11.6944 16.0353 12.3375C17.5505 12.896 18.8445 13.9294 19.7243 15.2836C19.8148 15.4224 19.8465 15.5915 19.8124 15.7537C19.7783 15.9159 19.6811 16.0579 19.5423 16.1484Z" fill="black" fill-opacity="0.7"/>
</svg>
