<svg width="21" height="21" viewBox="0 0 21 21" fill="none" xmlns="http://www.w3.org/2000/svg">
<path d="M18.2716 13.8859C17.838 13.1391 17.1934 11.0258 17.1934 8.26562C17.1934 6.60802 16.5349 5.01831 15.3628 3.84621C14.1907 2.67411 12.601 2.01563 10.9434 2.01562C9.28583 2.01563 7.69612 2.67411 6.52401 3.84621C5.35191 5.01831 4.69343 6.60802 4.69343 8.26562C4.69343 11.0266 4.04812 13.1391 3.61452 13.8859C3.5038 14.0758 3.4451 14.2915 3.44434 14.5113C3.44359 14.7311 3.50081 14.9473 3.61023 15.1379C3.71965 15.3285 3.8774 15.4869 4.06758 15.5971C4.25775 15.7073 4.47363 15.7655 4.69343 15.7656H7.88171C8.02591 16.4712 8.40939 17.1053 8.96728 17.5608C9.52518 18.0162 10.2233 18.2649 10.9434 18.2649C11.6636 18.2649 12.3617 18.0162 12.9196 17.5608C13.4775 17.1053 13.861 16.4712 14.0051 15.7656H17.1934C17.4132 15.7653 17.6289 15.7071 17.819 15.5968C18.0091 15.4866 18.1667 15.3282 18.276 15.1375C18.3854 14.9469 18.4425 14.7309 18.4417 14.5111C18.4409 14.2914 18.3822 14.0758 18.2716 13.8859ZM10.9434 17.0156C10.5558 17.0155 10.1777 16.8952 9.86124 16.6714C9.54477 16.4475 9.30546 16.1311 9.17624 15.7656H12.7106C12.5814 16.1311 12.3421 16.4475 12.0256 16.6714C11.7091 16.8952 11.3311 17.0155 10.9434 17.0156ZM4.69343 14.5156C5.29499 13.4812 5.94343 11.0844 5.94343 8.26562C5.94343 6.93954 6.47021 5.66777 7.4079 4.73009C8.34558 3.79241 9.61735 3.26562 10.9434 3.26562C12.2695 3.26562 13.5413 3.79241 14.479 4.73009C15.4166 5.66777 15.9434 6.93954 15.9434 8.26562C15.9434 11.082 16.5903 13.4789 17.1934 14.5156H4.69343Z" fill="black"/>
</svg>
