<svg width="21" height="21" viewBox="0 0 21 21" fill="none" xmlns="http://www.w3.org/2000/svg">
<path d="M10.6776 6.34658C9.93596 6.34658 9.21093 6.56652 8.59425 6.97857C7.97757 7.39063 7.49692 7.9763 7.21309 8.66152C6.92926 9.34674 6.855 10.1007 6.99969 10.8282C7.14439 11.5556 7.50154 12.2238 8.02599 12.7482C8.55044 13.2727 9.21862 13.6298 9.94605 13.7745C10.6735 13.9192 11.4275 13.845 12.1127 13.5611C12.7979 13.2773 13.3836 12.7967 13.7957 12.18C14.2077 11.5633 14.4276 10.8383 14.4276 10.0966C14.4266 9.10234 14.0312 8.14911 13.3281 7.44608C12.6251 6.74304 11.6719 6.34762 10.6776 6.34658ZM10.6776 12.5966C10.1832 12.5966 9.69984 12.45 9.28871 12.1753C8.87759 11.9006 8.55716 11.5101 8.36794 11.0533C8.17872 10.5965 8.12921 10.0938 8.22568 9.60886C8.32214 9.12391 8.56024 8.67845 8.90987 8.32882C9.2595 7.97919 9.70496 7.74108 10.1899 7.64462C10.6749 7.54816 11.1775 7.59767 11.6343 7.78688C12.0912 7.9761 12.4816 8.29654 12.7563 8.70766C13.031 9.11878 13.1776 9.60213 13.1776 10.0966C13.1776 10.7596 12.9142 11.3955 12.4454 11.8644C11.9766 12.3332 11.3407 12.5966 10.6776 12.5966ZM19.2667 8.47236C19.2493 8.38435 19.2131 8.30112 19.1607 8.22832C19.1083 8.15553 19.0408 8.09488 18.9628 8.05049L16.6323 6.72236L16.623 4.0958C16.6227 4.00534 16.6028 3.91603 16.5646 3.83402C16.5264 3.75201 16.4709 3.67926 16.4019 3.6208C15.5565 2.90572 14.583 2.35773 13.5331 2.00596C13.4504 1.97797 13.3628 1.96762 13.2759 1.97556C13.189 1.9835 13.1047 2.00955 13.0284 2.05205L10.6776 3.36611L8.32451 2.04971C8.24823 2.00697 8.16382 1.98072 8.07675 1.97264C7.98968 1.96457 7.90189 1.97485 7.81905 2.00283C6.76994 2.35718 5.79755 2.90726 4.95342 3.62393C4.88449 3.6823 4.82903 3.75492 4.79086 3.83679C4.75269 3.91865 4.73272 4.00782 4.73233 4.09815L4.72061 6.72705L2.39014 8.05518C2.31217 8.09956 2.24467 8.16022 2.19223 8.23301C2.13979 8.30581 2.10364 8.38904 2.08623 8.47705C1.87295 9.54884 1.87295 10.6521 2.08623 11.7239C2.10364 11.8119 2.13979 11.8952 2.19223 11.968C2.24467 12.0408 2.31217 12.1014 2.39014 12.1458L4.72061 13.4739L4.72998 16.1005C4.73027 16.1909 4.75018 16.2803 4.78835 16.3623C4.82653 16.4443 4.88205 16.517 4.95108 16.5755C5.79644 17.2906 6.76995 17.8386 7.81983 18.1903C7.9025 18.2183 7.99013 18.2287 8.07705 18.2207C8.16398 18.2128 8.24827 18.1867 8.32451 18.1442L10.6776 16.8271L13.0308 18.1435C13.1239 18.1953 13.2289 18.2223 13.3355 18.2216C13.4037 18.2216 13.4715 18.2105 13.5362 18.1888C14.5852 17.8349 15.5576 17.2854 16.4019 16.5692C16.4708 16.5109 16.5262 16.4382 16.5644 16.3564C16.6026 16.2745 16.6226 16.1853 16.623 16.095L16.6347 13.4661L18.9651 12.138C19.0431 12.0936 19.1106 12.033 19.163 11.9602C19.2155 11.8874 19.2516 11.8041 19.269 11.7161C19.4811 10.6452 19.4803 9.54298 19.2667 8.47236ZM18.0948 11.1997L15.8628 12.4692C15.765 12.5248 15.684 12.6058 15.6284 12.7036C15.5831 12.7817 15.5355 12.8646 15.487 12.9427C15.425 13.0412 15.392 13.1552 15.3917 13.2716L15.38 15.7911C14.78 16.2623 14.1117 16.639 13.398 16.9083L11.1464 15.6536C11.0529 15.6019 10.9477 15.575 10.8409 15.5755H10.8261C10.7315 15.5755 10.6362 15.5755 10.5417 15.5755C10.4299 15.5727 10.3194 15.5997 10.2214 15.6536L7.96826 16.9114C7.25304 16.6442 6.58281 16.2693 5.98076 15.7997L5.97217 13.2841C5.97178 13.1674 5.93877 13.0532 5.87686 12.9544C5.82842 12.8763 5.78076 12.7981 5.73623 12.7153C5.68102 12.616 5.60005 12.5334 5.50186 12.4763L3.26748 11.2036C3.15186 10.4722 3.15186 9.7272 3.26748 8.9958L5.49561 7.72393C5.5934 7.66832 5.67437 7.58735 5.72998 7.48955C5.7753 7.41143 5.82295 7.32861 5.87139 7.25049C5.93339 7.15197 5.96642 7.03799 5.9667 6.92158L5.97842 4.40205C6.57836 3.93092 7.24675 3.55418 7.96045 3.28486L10.2089 4.53955C10.3067 4.59379 10.4174 4.62077 10.5292 4.61768C10.6237 4.61768 10.719 4.61768 10.8136 4.61768C10.9254 4.62047 11.0359 4.59351 11.1339 4.53955L13.387 3.28174C14.1022 3.54899 14.7725 3.92388 15.3745 4.39346L15.3831 6.90908C15.3835 7.02572 15.4165 7.13992 15.4784 7.23877C15.5269 7.3169 15.5745 7.39502 15.619 7.47783C15.6743 7.57714 15.7552 7.65973 15.8534 7.7169L18.0878 8.98955C18.205 9.72151 18.2063 10.4673 18.0917 11.1997H18.0948Z" fill="black" fill-opacity="0.7"/>
</svg>
