<svg width="20" height="20" viewBox="0 0 20 20" fill="none" xmlns="http://www.w3.org/2000/svg">
<path d="M16.0982 11.25H12.869C12.441 11.2495 12.0302 11.4188 11.7268 11.7208C11.4235 12.0228 11.2522 12.4327 11.2507 12.8608V16.09C11.2505 16.3025 11.2922 16.5131 11.3734 16.7095C11.4547 16.906 11.5739 17.0845 11.7242 17.2348C11.8745 17.3851 12.053 17.5043 12.2494 17.5856C12.4459 17.6668 12.6564 17.7085 12.869 17.7083H16.0982C16.5261 17.7065 16.9358 17.5352 17.2376 17.2318C17.5394 16.9285 17.7086 16.5179 17.7082 16.09V12.8608C17.7084 12.6493 17.6669 12.4398 17.5861 12.2444C17.5052 12.049 17.3866 11.8714 17.2371 11.7219C17.0876 11.5723 16.91 11.4537 16.7146 11.3729C16.5191 11.2921 16.3097 11.2506 16.0982 11.2508M7.13067 11.25H3.90151C3.47367 11.2524 3.06418 11.424 2.7625 11.7274C2.46083 12.0308 2.2915 12.4413 2.2915 12.8691V16.0983C2.29129 16.3098 2.33278 16.5192 2.41361 16.7147C2.49444 16.9101 2.61303 17.0877 2.76257 17.2372C2.91212 17.3868 3.08969 17.5054 3.28513 17.5862C3.48056 17.667 3.69002 17.7085 3.90151 17.7083H7.13067C7.55857 17.7087 7.9692 17.5395 8.27255 17.2377C8.57591 16.9359 8.74724 16.5262 8.749 16.0983V12.8691C8.74922 12.6565 8.70751 12.446 8.62626 12.2496C8.54501 12.0531 8.42581 11.8746 8.2755 11.7243C8.12518 11.574 7.94668 11.4548 7.75024 11.3735C7.5538 11.2923 7.34326 11.2506 7.13067 11.2508M7.13067 2.29163H3.90151C3.69002 2.29141 3.48056 2.3329 3.28513 2.41373C3.08969 2.49457 2.91212 2.61315 2.76257 2.7627C2.61303 2.91224 2.49444 3.08981 2.41361 3.28525C2.33278 3.48068 2.29129 3.69014 2.2915 3.90163V7.13079C2.29106 7.5587 2.46028 7.96932 2.76207 8.27268C3.06386 8.57603 3.47361 8.74736 3.90151 8.74913H7.13067C7.34326 8.74935 7.5538 8.70764 7.75024 8.62639C7.94668 8.54513 8.12518 8.42594 8.2755 8.27562C8.42581 8.1253 8.54501 7.94681 8.62626 7.75036C8.70751 7.55392 8.74922 7.34338 8.749 7.13079V3.90163C8.74724 3.47373 8.57591 3.06398 8.27255 2.76219C7.9692 2.4604 7.55857 2.29118 7.13067 2.29163ZM16.0982 2.29163H12.869C12.4411 2.29118 12.0305 2.4604 11.7271 2.76219C11.4238 3.06398 11.2524 3.47373 11.2507 3.90163V7.13079C11.2509 7.55993 11.4215 7.97144 11.7249 8.27488C12.0284 8.57833 12.4399 8.74891 12.869 8.74913H16.0982C16.5261 8.74736 16.9358 8.57603 17.2376 8.27268C17.5394 7.96932 17.7086 7.5587 17.7082 7.13079V3.90163C17.7084 3.69014 17.6669 3.48068 17.5861 3.28525C17.5052 3.08981 17.3866 2.91224 17.2371 2.7627C17.0876 2.61315 16.91 2.49457 16.7146 2.41373C16.5191 2.3329 16.3097 2.29141 16.0982 2.29163Z" stroke="black" stroke-width="1.5" stroke-linecap="round" stroke-linejoin="round"/>
</svg>
